<svg id="Capa_1" data-name="Capa 1" xmlns="http://www.w3.org/2000/svg" viewBox="0 0 66.37 66.37"><defs><style>.cls-1{fill:#fff;}</style></defs><title>Agregar</title><path class="cls-1" d="M104.91,68.83H81.17V45.09a3.28,3.28,0,0,0-3.28-3.28H72.11a3.28,3.28,0,0,0-3.28,3.28V68.83H45.09a3.28,3.28,0,0,0-3.28,3.28v5.78a3.28,3.28,0,0,0,3.28,3.28H68.83v23.74a3.28,3.28,0,0,0,3.28,3.28h5.78a3.28,3.28,0,0,0,3.28-3.28V81.17h23.74a3.28,3.28,0,0,0,3.28-3.28V72.11A3.28,3.28,0,0,0,104.91,68.83Z" transform="translate(-41.81 -41.81)"/></svg>