<svg id="Capa_1" data-name="Capa 1" xmlns="http://www.w3.org/2000/svg" viewBox="0 0 134.81 133.48"><defs><style>.cls-1{fill:#42107d;}</style></defs><title>Configuracion</title><path class="cls-1" d="M136.45,64.31l-9.19-1a6.41,6.41,0,0,1-5.71-4.42,40.55,40.55,0,0,0-2-4.92,6.25,6.25,0,0,1,.75-7.13l6-7.13a6.44,6.44,0,0,0-.5-8.85l-6-5.9a6.59,6.59,0,0,0-8.93-.49l-7.2,5.66a7,7,0,0,1-7.2.73,30.25,30.25,0,0,0-5-2A7,7,0,0,1,87,23.25l-1-9.09a6.7,6.7,0,0,0-6.7-5.9H70.9a6.52,6.52,0,0,0-6.7,5.9l-1,9.09a6.39,6.39,0,0,1-4.47,5.66,42.65,42.65,0,0,0-5,2,6.41,6.41,0,0,1-7.2-.73l-7.2-5.66a6.59,6.59,0,0,0-8.93.49l-6,5.9a6.44,6.44,0,0,0-.5,8.85l5.71,7.13A6.77,6.77,0,0,1,30.44,54a29.23,29.23,0,0,0-2,4.92,7,7,0,0,1-5.71,4.42l-9.19,1a6.67,6.67,0,0,0-6,6.63V79.3a6.51,6.51,0,0,0,6,6.64l9.19,1a6.43,6.43,0,0,1,5.71,4.43,40.42,40.42,0,0,0,2,4.91,6.24,6.24,0,0,1-.75,7.13L24,110.52a6.44,6.44,0,0,0,.5,8.85l6,5.9a6.57,6.57,0,0,0,8.93.49l7.2-5.9a7,7,0,0,1,7.2-.73,30.25,30.25,0,0,0,5,2,7,7,0,0,1,4.47,5.66l1,9.09a6.7,6.7,0,0,0,6.7,5.9h8.45a6.52,6.52,0,0,0,6.7-5.9l1-9.09a6.39,6.39,0,0,1,4.47-5.66,42.65,42.65,0,0,0,5-2,6.41,6.41,0,0,1,7.2.73l7.2,5.9a6.57,6.57,0,0,0,8.93-.49l6-5.9a6.44,6.44,0,0,0,.5-8.85l-6-7.13a6.76,6.76,0,0,1-.75-7.13,28.79,28.79,0,0,0,2-4.91,7,7,0,0,1,5.71-4.43l9.19-1a6.68,6.68,0,0,0,6-6.64V70.94A6.5,6.5,0,0,0,136.45,64.31ZM75.12,103.39a28.27,28.27,0,1,1,28.56-28.27C103.68,90.61,90.77,103.15,75.12,103.39Z" transform="translate(-7.59 -8.26)"/></svg>