<svg id="Capa_1" data-name="Capa 1" xmlns="http://www.w3.org/2000/svg" viewBox="0 0 83.72 98.73"><defs><style>.cls-1{fill:#786ff3;}</style></defs><title>Filtros</title><path class="cls-1" d="M114.45,38.64H89.7a17,17,0,0,0-33.07,0H35.55a2.42,2.42,0,0,0-2.41,2.41v3.19a2.42,2.42,0,0,0,2.41,2.41H56.63a17,17,0,0,0,33.07,0h24.75a2.42,2.42,0,0,0,2.41-2.41V41.05A2.42,2.42,0,0,0,114.45,38.64ZM73,52.32a9.48,9.48,0,1,1,8.7-5.67A9.51,9.51,0,0,1,73,52.32Z" transform="translate(-33.14 -25.64)"/><path class="cls-1" d="M114.45,71h-7.66a17,17,0,0,0-33.22,0h-38a2.42,2.42,0,0,0-2.41,2.41v3.18A2.42,2.42,0,0,0,35.55,79H73.73a17,17,0,0,0,32.9,0h7.82a2.42,2.42,0,0,0,2.41-2.41V73.41A2.42,2.42,0,0,0,114.45,71ZM90,84.34A9.5,9.5,0,1,1,98.55,79,9.49,9.49,0,0,1,90,84.34Z" transform="translate(-33.14 -25.64)"/><path class="cls-1" d="M114.45,103.35H74a17,17,0,0,0-33.06,0H35.55a2.42,2.42,0,0,0-2.41,2.41V109a2.42,2.42,0,0,0,2.41,2.41H41a17,17,0,0,0,33.06,0h40.43a2.42,2.42,0,0,0,2.41-2.41v-3.19A2.42,2.42,0,0,0,114.45,103.35Zm-48.25,8a9.52,9.52,0,1,1,1-4.17A9.49,9.49,0,0,1,66.2,111.36Z" transform="translate(-33.14 -25.64)"/></svg>