<svg id="Capa_1" data-name="Capa 1" xmlns="http://www.w3.org/2000/svg" viewBox="0 0 64.24 65.56"><defs><style>.cls-1{fill:#42107d;}</style></defs><title>Calendario</title><path class="cls-1" d="M62.69,16.56H58.56v-3a4.34,4.34,0,1,0-8.67,0v3H28.28v-3a4.34,4.34,0,1,0-8.67,0v3H15.48A8.54,8.54,0,0,0,7,25.08V66.25a8.54,8.54,0,0,0,8.51,8.52H62.69a8.54,8.54,0,0,0,8.51-8.52V25.08A8.54,8.54,0,0,0,62.69,16.56Zm0,51.6H15.48a1.93,1.93,0,0,1-1.9-1.91V28.91H64.22a2.21,2.21,0,0,0,.37,0V66.25A1.93,1.93,0,0,1,62.69,68.16Z" transform="translate(-6.97 -9.21)"/></svg>