<svg id="Capa_1" data-name="Capa 1" xmlns="http://www.w3.org/2000/svg" viewBox="0 0 78.17 83.98"><defs><style>.cls-1{fill:#786ff3;}</style></defs><title>Cerrar sesion</title><path class="cls-1" d="M71.57,92H13.89a3,3,0,0,1-3-3V11a3,3,0,0,1,3-3H71a3,3,0,0,1,3,3v11.5a4.55,4.55,0,0,1-4.31,4.58A4.47,4.47,0,0,1,65,22.6V17a0,0,0,0,0,0,0H19.86a0,0,0,0,0,0,0v66.1H65.6s0,0,0,0V77.32a4.56,4.56,0,0,1,4.32-4.59,4.48,4.48,0,0,1,4.62,4.47V89A3,3,0,0,1,71.57,92Z" transform="translate(-10.92 -8.01)"/><path class="cls-1" d="M89.08,49.8a4.42,4.42,0,0,0-1.7-3.5L73.93,32.85a4.47,4.47,0,0,0-6.32,6.31l6.18,6.17H31.66a4.47,4.47,0,0,0,0,8.94H74.08l-6.47,6.47a4.47,4.47,0,0,0,6.32,6.32l13.6-13.6a6,6,0,0,0,1.55-3.66Z" transform="translate(-10.92 -8.01)"/></svg>