<svg id="Capa_1" data-name="Capa 1" xmlns="http://www.w3.org/2000/svg" viewBox="0 0 61.16 65.87"><defs><style>.cls-1{fill:#786ff3;}</style></defs><title>Cerrar sesion over</title><path class="cls-1" d="M68.33,39.09,57.87,28.62A3.56,3.56,0,0,0,53,28.48a3.5,3.5,0,0,0-.09,5l4.83,4.83H27.62A3.57,3.57,0,0,0,24,41.72a3.5,3.5,0,0,0,3.5,3.61h30.4l-5.07,5.06a3.5,3.5,0,0,0,5,5L68.45,44.69a3.45,3.45,0,0,0,.75-1.12,3.4,3.4,0,0,0,.46-1.74A3.49,3.49,0,0,0,68.33,39.09Z" transform="translate(-8.51 -9.05)"/><path class="cls-1" d="M43.79,67.93H19a3.49,3.49,0,0,1-3.49-3.49V19.54A3.49,3.49,0,0,1,19,16.05h25.6a3.5,3.5,0,0,0,3.5-3.5h0a3.5,3.5,0,0,0-3.5-3.5H16.66a8.16,8.16,0,0,0-8.15,8.16V66.77a8.16,8.16,0,0,0,8.15,8.16H43.79a3.5,3.5,0,0,0,3.49-3.5h0A3.5,3.5,0,0,0,43.79,67.93Z" transform="translate(-8.51 -9.05)"/></svg>