<svg id="Capa_1" data-name="Capa 1" xmlns="http://www.w3.org/2000/svg" viewBox="0 0 98 115.58"><defs><style>.cls-1{fill:#786ff3;}</style></defs><title>Evento seleccionado</title><path class="cls-1" d="M124,62.27c0-25-22.13-45.23-49.35-45.06-26.77.17-48.6,20.35-48.65,45A42.84,42.84,0,0,0,37.79,91.59h0L56.37,114l.46.55L70.2,130.6a6.37,6.37,0,0,0,9.61,0l13.36-16.07.46-.55,18.63-22.39h-.05A42.82,42.82,0,0,0,124,62.27ZM101.36,84.45,88.18,100.29,78.4,112.05a4.51,4.51,0,0,1-6.8,0l-9.78-11.76L48.64,84.45h0a29.91,29.91,0,0,1,.92-42.36A34.85,34.85,0,0,1,74.76,31.4H75a35,35,0,0,1,23.74,9c.59.54,1.16,1.1,1.7,1.68a30,30,0,0,1,.88,42.38Z" transform="translate(-26 -17.21)"/><ellipse class="cls-1" cx="68.26" cy="53.36" rx="5.33" ry="7.24" transform="translate(-33.6 -5.71) rotate(-9.13)"/><ellipse class="cls-1" cx="57.04" cy="59.01" rx="4.58" ry="6.21" transform="translate(-34.64 -7.42) rotate(-9.13)"/><ellipse class="cls-1" cx="81.71" cy="53.36" rx="7.24" ry="5.33" transform="translate(-9.94 108.36) rotate(-80.87)"/><ellipse class="cls-1" cx="92.96" cy="59.01" rx="6.21" ry="4.58" transform="translate(-6.05 124.22) rotate(-80.87)"/><path class="cls-1" d="M85.59,65.05h0a9.92,9.92,0,0,0-10.08,1.47.81.81,0,0,1-1,0,9.92,9.92,0,0,0-10.08-1.47h0a10,10,0,0,0-2.3,17.15h0l12.2,9.41a1.19,1.19,0,0,0,1.38,0l12.2-9.41h0A10,10,0,0,0,85.59,65.05Z" transform="translate(-26 -17.21)"/></svg>