<svg id="Capa_1" data-name="Capa 1" xmlns="http://www.w3.org/2000/svg" viewBox="0 0 82.09 83.78"><defs><style>.cls-1{fill:#786ff3;}</style></defs><title>Eventos</title><path class="cls-1" d="M80.16,17.5H74.89V13.65a5.54,5.54,0,0,0-11.08,0V17.5H36.19V13.65a5.54,5.54,0,1,0-11.08,0V17.5H19.84A10.91,10.91,0,0,0,9,28.39V81A10.91,10.91,0,0,0,19.84,91.89H80.16A10.91,10.91,0,0,0,91,81V28.39A10.91,10.91,0,0,0,80.16,17.5Zm0,65.94H19.84A2.47,2.47,0,0,1,17.41,81V33.28H82.12a2.42,2.42,0,0,0,.47-.05V81A2.47,2.47,0,0,1,80.16,83.44Z" transform="translate(-8.96 -8.11)"/></svg>