<svg id="Capa_1" data-name="Capa 1" xmlns="http://www.w3.org/2000/svg" viewBox="0 0 66.75 68.6"><defs><style>.cls-1{fill:#786ff3;}</style></defs><title>Grupos Over</title><path class="cls-1" d="M58.63,10.45A33.28,33.28,0,0,0,5.32,48.84l-3.49,13a5.82,5.82,0,0,0,1.53,5.69A5.84,5.84,0,0,0,7.5,69.3a6,6,0,0,0,1.56-.21L23.58,65.2A33.28,33.28,0,0,0,58.63,10.45ZM35.1,60.6a26.46,26.46,0,0,1-10.07-2l-1-.42L8.6,62.32,12.44,48l-.65-1.18A26.62,26.62,0,1,1,35.1,60.6Z" transform="translate(-1.63 -0.7)"/><path class="cls-1" d="M45.57,40.07l-8.75-8.42a3.91,3.91,0,0,0-5.41,0l-8.75,8.42-1.52,1.46C17.53,45,20,51.59,25,51.09c2.29-.23,6.84-1.39,9.12-1.39s6.83,1.16,9.13,1.39c5,.5,7.46-6.09,3.85-9.56Z" transform="translate(-1.63 -0.7)"/><ellipse class="cls-1" cx="26.13" cy="22.24" rx="5.47" ry="6.88"/><ellipse class="cls-1" cx="17.63" cy="32.28" rx="4.51" ry="5.67"/><ellipse class="cls-1" cx="39.44" cy="22.24" rx="5.47" ry="6.88"/><ellipse class="cls-1" cx="47.94" cy="32.28" rx="4.51" ry="5.67"/></svg>