<svg id="Capa_1" data-name="Capa 1" xmlns="http://www.w3.org/2000/svg" viewBox="0 0 117.9 105.27"><defs><style>.cls-1{fill:#786ff3;}</style></defs><title>Grupos seleccionado</title><path class="cls-1" d="M133.53,56.37c-1.93-13.95-10.41-25.5-22.66-30.91a35.3,35.3,0,0,0-20.46-2.57A36.45,36.45,0,0,0,75,29.6a36.45,36.45,0,0,0-15.41-6.71,35.29,35.29,0,0,0-20.46,2.57c-12.25,5.41-20.73,17-22.66,30.91-2,14.36,3.24,28.26,14,37.18l38.62,32a9.12,9.12,0,0,0,5.82,2.12h.16a9.12,9.12,0,0,0,5.82-2.12l38.62-32C130.29,84.63,135.53,70.73,133.53,56.37ZM45.68,71.72a2.47,2.47,0,1,1,2.46,2.46A2.47,2.47,0,0,1,45.68,71.72Zm9.24,0a2.47,2.47,0,1,1,2.47,2.46A2.48,2.48,0,0,1,54.92,71.72Zm30-8.82a2.47,2.47,0,1,1,2.46,2.46A2.46,2.46,0,0,1,84.91,62.9Zm7.68,4h3.35a1.22,1.22,0,0,1,.8,2.14l-1.67,1.45a1.22,1.22,0,0,1-1.6,0l-1.68-1.45A1.22,1.22,0,0,1,92.59,66.92Zm5.76-4a2.47,2.47,0,1,1,2.47,2.46A2.47,2.47,0,0,1,98.35,62.9Zm14,21.39-3.62-4.49a4,4,0,0,1-.89-2.65l.1-3.46a5.44,5.44,0,0,1,2.86-4.62l4.37-2.33s0,.18,0-6.19c0-9.75-7.61-11.66-7.61-11.66s-20.71-2.14-27.85,0-8.56,16.66-8.56,16.66l6.69,3.88a5.08,5.08,0,0,1,2.52,4.07c.14,2.21.07,5.21.06,5.35-.26,2.6-1.82,4-3.47,7.13a18.67,18.67,0,0,0-2.08,8.25c-.1,5.76-.22,15.73,0,21l-8.19-6.78-.51-9.74a10.88,10.88,0,0,0-.73-3.38l-2.25-5.8a11.23,11.23,0,0,1,.13-8.41l1.37-3.24A17.72,17.72,0,0,0,66.13,71V53.61l-7.61,7.62H46.62L40,54.32V65a26.7,26.7,0,0,1-5.7,15.85A29.37,29.37,0,0,1,28,58c1.38-9.9,7.29-18.07,15.82-21.83A23.79,23.79,0,0,1,69.56,40.2a8.25,8.25,0,0,0,10.88,0,23.81,23.81,0,0,1,25.71-4.06C114.68,39.9,120.59,48.07,122,58A29,29,0,0,1,112.38,84.29Z" transform="translate(-16.05 -22.36)"/></svg>