<svg id="Capa_1" data-name="Capa 1" xmlns="http://www.w3.org/2000/svg" viewBox="0 0 97.48 62.04"><defs><style>.cls-1{fill:#786ff3;}</style></defs><title>Grupos</title><path class="cls-1" d="M91.79,50.16a12.6,12.6,0,1,0-20.07-.28,17.48,17.48,0,0,0-4.22,4.23,25.6,25.6,0,0,0-6.14-4.25A17.57,17.57,0,1,0,38.55,50a26,26,0,0,0-6,4.22,17.38,17.38,0,0,0-3.88-4A12.6,12.6,0,1,0,6.13,42.41a12.5,12.5,0,0,0,2.46,7.47A17.22,17.22,0,0,0,1.26,62.66v6a3,3,0,0,0,3,3H24.49c0,.4,0,.81,0,1.22v0a1,1,0,0,0,0,.24V78a3,3,0,0,0,3,3H72.73a3,3,0,0,0,3-3V71.59H95.76a3,3,0,0,0,3-3v-6A17.22,17.22,0,0,0,91.79,50.16ZM18.73,38.73a3.68,3.68,0,1,1-3.67,3.68A3.67,3.67,0,0,1,18.73,38.73Zm7.84,23.93H10.3a8.24,8.24,0,0,1,16.27,0ZM49.9,27.91a8.64,8.64,0,1,1-8.64,8.64A8.66,8.66,0,0,1,49.9,27.91ZM33.42,72.09a16.64,16.64,0,0,1,33.26,0ZM81.86,38.73a3.68,3.68,0,1,1-3.67,3.68A3.68,3.68,0,0,1,81.86,38.73ZM73.53,62.66c0-.06,0-.11-.07-.17a8.24,8.24,0,0,1,16.24.17Z" transform="translate(-1.26 -18.98)"/></svg>