<svg id="Capa_1" data-name="Capa 1" xmlns="http://www.w3.org/2000/svg" viewBox="0 0 108.98 113.75"><defs><style>.cls-1{fill:#42107d;}</style></defs><title>Home</title><path class="cls-1" d="M121.16,45.77l-.44-.29L102.12,33,83.94,20.84a16.08,16.08,0,0,0-17.88,0L47.88,33,29.28,45.48l-.44.29a19.26,19.26,0,0,0-8.33,15.82v50.68a19.67,19.67,0,0,0,19.61,19.61h69.76a19.67,19.67,0,0,0,19.61-19.61V61.59A19.26,19.26,0,0,0,121.16,45.77Zm-3.35,66.5a8,8,0,0,1-7.93,7.93H40.12a8,8,0,0,1-7.93-7.93V61.59a7.6,7.6,0,0,1,3.24-6.18L72.56,30.54a4.38,4.38,0,0,1,4.88,0l37.13,24.87a7.6,7.6,0,0,1,3.24,6.18Z" transform="translate(-20.51 -18.12)"/></svg>