<svg id="Capa_1" data-name="Capa 1" xmlns="http://www.w3.org/2000/svg" viewBox="0 0 65.25 68.11"><defs><style>.cls-1{fill:#786ff3;}</style></defs><title>Home over</title><path class="cls-1" d="M66.72,24.49l-.26-.17L55.32,16.85,44.44,9.56a9.62,9.62,0,0,0-10.71,0L22.85,16.85,11.71,24.32l-.26.17a11.53,11.53,0,0,0-5,9.47V64.3A11.77,11.77,0,0,0,18.2,76H60A11.77,11.77,0,0,0,71.71,64.3V34A11.53,11.53,0,0,0,66.72,24.49Zm-2,39.81A4.81,4.81,0,0,1,60,69.05H18.2a4.81,4.81,0,0,1-4.75-4.75V34a4.56,4.56,0,0,1,1.94-3.7L37.62,15.37a2.65,2.65,0,0,1,2.93,0L62.78,30.26A4.56,4.56,0,0,1,64.72,34Z" transform="translate(-6.46 -7.94)"/></svg>