<svg id="Capa_1" data-name="Capa 1" xmlns="http://www.w3.org/2000/svg" viewBox="0 0 120.17 120.17"><defs><style>.cls-1{fill:#42107d;}</style></defs><title>Mas opciones</title><path class="cls-1" d="M117.42,32.45a60.08,60.08,0,1,0-84.84,85.1,60.08,60.08,0,1,0,84.84-85.1Zm-42.35,90.4a47.85,47.85,0,1,1,47.78-47.92A47.9,47.9,0,0,1,75.07,122.85Z" transform="translate(-14.91 -14.91)"/><path class="cls-1" d="M81.75,72.55c-.1-.21-.22-.42-.34-.62a6,6,0,0,0-.4-.58,6.61,6.61,0,0,0-.69-.8,5.66,5.66,0,0,0-.52-.47c-.18-.15-.37-.29-.57-.43a7.11,7.11,0,0,0-1.58-.8,6.63,6.63,0,0,0-1.41-.36,6,6,0,0,0-.74-.07h-.75c-.25,0-.5,0-.74.07a7.3,7.3,0,0,0-1.41.37,7.15,7.15,0,0,0-1.58.81c-.19.13-.38.27-.56.42s-.36.31-.52.47a7.47,7.47,0,0,0-.69.8c-.14.19-.27.39-.4.59a6.25,6.25,0,0,0-.33.63,5.3,5.3,0,0,0-.28.65,7.09,7.09,0,0,0-.44,2.53,7.22,7.22,0,0,0,.45,2.52,4.84,4.84,0,0,0,.28.66c.1.21.21.42.33.62s.26.4.4.59A7.47,7.47,0,0,0,70,81c.17.16.34.32.53.47s.37.29.56.42a7.6,7.6,0,0,0,1.58.81A8.09,8.09,0,0,0,74,83c.24,0,.49.06.74.07h.76a6.2,6.2,0,0,0,.74-.08,7.38,7.38,0,0,0,1.4-.36,7.6,7.6,0,0,0,1.58-.81c.2-.13.38-.28.57-.43s.35-.3.52-.47a8.8,8.8,0,0,0,.69-.8,6,6,0,0,0,.39-.59c.12-.2.24-.41.34-.62s.19-.43.28-.66a7.54,7.54,0,0,0,.44-2.52A7.32,7.32,0,0,0,82,73.21C82,73,81.85,72.77,81.75,72.55Z" transform="translate(-14.91 -14.91)"/><path class="cls-1" d="M57.28,72.59c-.1-.21-.22-.42-.34-.62s-.26-.4-.4-.59a7.36,7.36,0,0,0-.69-.79c-.17-.17-.34-.33-.52-.48a6,6,0,0,0-.57-.42,7.11,7.11,0,0,0-1.58-.8,6.63,6.63,0,0,0-1.41-.36c-.24,0-.49-.06-.74-.08h-.75c-.25,0-.5,0-.74.08a8.09,8.09,0,0,0-1.41.36,7.6,7.6,0,0,0-1.58.81c-.19.14-.38.28-.56.43s-.36.31-.52.47a7.47,7.47,0,0,0-.69.8c-.14.19-.27.39-.4.59s-.23.41-.33.62a6.21,6.21,0,0,0-.28.66,7.39,7.39,0,0,0,0,5,6.21,6.21,0,0,0,.28.66,5.36,5.36,0,0,0,.34.62c.12.2.25.4.39.59a7.51,7.51,0,0,0,.69.79c.17.17.35.33.53.48s.37.29.56.42a7.11,7.11,0,0,0,1.58.8,6.63,6.63,0,0,0,1.41.36c.24,0,.49.06.74.08h.76c.25,0,.49,0,.74-.08a8.22,8.22,0,0,0,1.4-.36,7.6,7.6,0,0,0,1.58-.81c.2-.14.38-.28.57-.43s.35-.31.52-.47a8.8,8.8,0,0,0,.69-.8c.14-.19.27-.39.39-.59s.24-.41.34-.62.19-.44.28-.66A7.56,7.56,0,0,0,58,75.77a7.31,7.31,0,0,0-.45-2.52C57.48,73,57.38,72.81,57.28,72.59Z" transform="translate(-14.91 -14.91)"/><path class="cls-1" d="M106,72.52c-.11-.22-.22-.42-.34-.63s-.26-.39-.4-.58a7.47,7.47,0,0,0-.69-.8c-.17-.16-.34-.32-.52-.47s-.37-.29-.57-.42a7.6,7.6,0,0,0-1.58-.81,8.09,8.09,0,0,0-1.41-.36c-.24,0-.49-.06-.74-.07H99a6,6,0,0,0-.74.08,6.63,6.63,0,0,0-1.41.36,7.6,7.6,0,0,0-1.58.81c-.19.13-.38.27-.56.42a5.91,5.91,0,0,0-.52.48,6.61,6.61,0,0,0-.69.8,5.45,5.45,0,0,0-.4.58c-.12.21-.23.41-.34.63a6.5,6.5,0,0,0-.27.66A7.22,7.22,0,0,0,92,75.72a7.46,7.46,0,0,0,.45,2.52c.09.23.18.45.28.66s.22.42.34.63.26.39.4.58a7.47,7.47,0,0,0,.69.8c.17.16.34.32.52.47s.37.29.57.42a7.6,7.6,0,0,0,1.58.81,8.09,8.09,0,0,0,1.41.36c.24,0,.49.06.74.07h.75a6,6,0,0,0,.74-.08,6.63,6.63,0,0,0,1.41-.36,7.6,7.6,0,0,0,1.58-.81c.19-.13.38-.27.56-.42a5.91,5.91,0,0,0,.52-.48,6.61,6.61,0,0,0,.69-.8c.14-.19.28-.38.4-.58s.23-.41.34-.63a6.5,6.5,0,0,0,.27-.66,7.22,7.22,0,0,0,.45-2.52,7.46,7.46,0,0,0-.45-2.52C106.14,73,106.05,72.73,106,72.52Z" transform="translate(-14.91 -14.91)"/></svg>