<svg id="Capa_1" data-name="Capa 1" xmlns="http://www.w3.org/2000/svg" viewBox="0 0 65.87 51.58"><defs><style>.cls-1{fill:#786ff3;}</style></defs><title>Mensajes over</title><path class="cls-1" d="M72,21.14v-.07c0-.06,0-.11,0-.17a.28.28,0,0,1,0-.09s0-.1,0-.15a.28.28,0,0,1,0-.09l0-.17a.64.64,0,0,1,0-.07,1.74,1.74,0,0,0,0-.22s0-.05,0-.08,0-.1,0-.15l0-.09s0-.08,0-.13l0-.1,0-.11a1,1,0,0,0,0-.1l-.06-.12a.89.89,0,0,0-.08-.17,1.17,1.17,0,0,0,0-.11l-.06-.11-.06-.09-.06-.11a.22.22,0,0,1,0-.08l-.08-.11,0-.07a1,1,0,0,0-.08-.11l-.17-.22,0,0-.15-.17,0,0-.15-.16,0,0-.18-.16,0,0a5.3,5.3,0,0,0-.45-.34l0,0-.19-.12-.07,0-.17-.09-.08,0L69,16.66l-.07,0-.22-.09,0,0-.27-.09-.06,0-.21-.05-.1,0-.18,0H67.7l-.18,0-.11,0H10.76l-.11,0-.18,0h-.11l-.18,0-.1,0-.21.05-.06,0-.27.09,0,0-.22.09-.07,0L9,16.75l-.08,0-.17.09-.07,0L8.52,17l0,0a5.3,5.3,0,0,0-.45.34l0,0-.18.16,0,0-.15.15-.05.05L7.41,18l0,0-.17.22a1,1,0,0,0-.08.11l0,.07L7,18.56a.22.22,0,0,1,0,.08l-.06.11-.06.09L6.76,19a1.17,1.17,0,0,0,0,.11.89.89,0,0,0-.08.17l-.06.12a1,1,0,0,0,0,.1l0,.11,0,.1s0,.09,0,.13l0,.09c0,.05,0,.1,0,.15s0,0,0,.08a1.74,1.74,0,0,0,0,.22.64.64,0,0,1,0,.07l0,.17a.28.28,0,0,1,0,.09c0,.05,0,.1,0,.15a.28.28,0,0,1,0,.09c0,.06,0,.11,0,.17v.07a2.09,2.09,0,0,0,0,.25v41.2a5.2,5.2,0,0,0,5.19,5.19H66.83A5.2,5.2,0,0,0,72,62.59V21.39A2.09,2.09,0,0,0,72,21.14ZM13.14,23.19H65v.48l-4.94,4.49L42.94,43.76a5.72,5.72,0,0,1-7.71,0L18.08,28.16l-4.94-4.49ZM65,60.79H13.14V33.12L30.52,48.94a12.74,12.74,0,0,0,17.13,0L65,33.12Z" transform="translate(-6.15 -16.2)"/></svg>