<svg id="Capa_1" data-name="Capa 1" xmlns="http://www.w3.org/2000/svg" viewBox="0 0 110.02 86.15"><defs><style>.cls-1{fill:#786ff3;}</style></defs><title>Mensaje seleccionado</title><path class="cls-1" d="M130,40.18s0-.08,0-.13a2.45,2.45,0,0,0,0-.27.77.77,0,0,0,0-.15l0-.26s0-.1,0-.15,0-.18-.05-.27,0-.08,0-.12l-.09-.38,0-.12c0-.09-.05-.17-.08-.25a1,1,0,0,0,0-.16,1.72,1.72,0,0,0-.07-.21l-.06-.17a1.54,1.54,0,0,0-.08-.19,1.22,1.22,0,0,0-.07-.17,1.76,1.76,0,0,0-.09-.2c0-.1-.09-.19-.13-.28a1723815931205.29,1723815931205.29,0,0,1-.2-.36l-.08-.15a1.74,1.74,0,0,1-.11-.18l-.09-.14-.12-.18-.09-.13-.13-.18L128,35l-.06-.07-.26-.28-.07-.08-.26-.26-.08-.07-.3-.27,0,0a8.85,8.85,0,0,0-.76-.57l-.08-.05-.31-.2-.12-.06a2.69,2.69,0,0,0-.29-.16l-.13-.07-.3-.14-.13-.06-.36-.15-.07,0-.45-.15-.09,0-.36-.1-.16,0-.31-.07-.17,0-.31,0-.17,0L122,32H28l-.33,0-.17,0-.31,0-.17,0-.31.07-.16,0-.36.1-.09,0-.45.15-.07,0-.36.15-.13.06-.3.14-.13.07a2.69,2.69,0,0,0-.29.16l-.12.06-.31.2-.08.05a8.85,8.85,0,0,0-.76.57l-.05,0-.3.27-.08.07-.26.26-.07.08-.26.28L22,35l-.29.36-.13.18-.09.13-.12.18-.09.14a1.74,1.74,0,0,1-.11.18l-.08.15a12641316828825.7,12641316828825.7,0,0,0-.2.36c0,.09-.09.18-.13.28a1.76,1.76,0,0,0-.09.2,1.22,1.22,0,0,0-.07.17,1.54,1.54,0,0,0-.08.19l-.06.17a1.72,1.72,0,0,0-.07.21,1,1,0,0,0-.05.16c0,.08-.05.16-.08.25l0,.12-.09.38s0,.08,0,.12,0,.18,0,.27,0,.1,0,.15l0,.26a.77.77,0,0,0,0,.15,2.45,2.45,0,0,0,0,.27c0,.05,0,.09,0,.13s0,.27,0,.41v68.82a8.69,8.69,0,0,0,8.67,8.66h92.68a8.69,8.69,0,0,0,8.67-8.66V40.59C130,40.45,130,40.32,130,40.18ZM31.67,43.6h86.66v.81l-8.24,7.5L81.44,78a9.55,9.55,0,0,1-12.88,0l-28.65-26-8.24-7.5Zm86.66,62.8H31.67V60.19l29,26.41a21.25,21.25,0,0,0,28.6,0l29-26.41Z" transform="translate(-19.99 -31.93)"/></svg>