<svg id="Capa_1" data-name="Capa 1" xmlns="http://www.w3.org/2000/svg" viewBox="0 0 97.82 114.17"><defs><style>.cls-1{fill:#42107d;}</style></defs><title>Notificacion</title><path class="cls-1" d="M119.77,104.39c-2.6-2.81-5.78-6.19-7.46-7.85V66.3A36.4,36.4,0,0,0,84.1,31V26.56a8.67,8.67,0,0,0-8.65-8.65h0a9.31,9.31,0,0,0-9.28,9.29v3.62A35.39,35.39,0,0,0,38.22,65.31V96.62L30.81,104A16.13,16.13,0,0,0,26.09,115h97.82A15.53,15.53,0,0,0,119.77,104.39Zm-19.33-4.47a3.17,3.17,0,0,1-3.16,3.16H53a3.17,3.17,0,0,1-3.16-3.16V66.71A25.94,25.94,0,0,1,75.68,40.85h0a24.84,24.84,0,0,1,24.76,24.77Z" transform="translate(-26.09 -17.91)"/><path class="cls-1" d="M75.13,132.09a12.13,12.13,0,0,0,12.12-11.87H63A12.13,12.13,0,0,0,75.13,132.09Z" transform="translate(-26.09 -17.91)"/></svg>