<svg id="Capa_1" data-name="Capa 1" xmlns="http://www.w3.org/2000/svg" viewBox="0 0 58.57 68.36"><defs><style>.cls-1{fill:#786ff3;}</style></defs><title>Notificacion over</title><path class="cls-1" d="M65.89,59.59c-1.56-1.68-3.46-3.71-4.47-4.7V36.78A21.78,21.78,0,0,0,44.53,15.62V13a5.19,5.19,0,0,0-5.17-5.18h0a5.57,5.57,0,0,0-5.56,5.56v2.17A21.2,21.2,0,0,0,17.06,36.19V54.94l-4.43,4.43A9.69,9.69,0,0,0,9.8,65.91H68.37A9.29,9.29,0,0,0,65.89,59.59ZM54.32,56.91a1.9,1.9,0,0,1-1.9,1.89H25.9A1.89,1.89,0,0,1,24,56.91V37A15.52,15.52,0,0,1,39.49,21.55h0A14.87,14.87,0,0,1,54.32,36.37Z" transform="translate(-9.8 -7.81)"/><path class="cls-1" d="M39.16,76.17a7.26,7.26,0,0,0,7.26-7.11H31.91A7.26,7.26,0,0,0,39.16,76.17Z" transform="translate(-9.8 -7.81)"/></svg>