<svg id="Capa_1" data-name="Capa 1" xmlns="http://www.w3.org/2000/svg" viewBox="0 0 119.36 120.31"><defs><style>.cls-1{fill:#42107d;}</style></defs><title>Perfil</title><path class="cls-1" d="M119.15,88.42A52.77,52.77,0,0,0,96.43,75a33.88,33.88,0,1,0-42.86,0,53.14,53.14,0,0,0-38.25,50.82,9.39,9.39,0,0,0,9.38,9.38H125.3a9.39,9.39,0,0,0,9.38-9.38A52.53,52.53,0,0,0,119.15,88.42ZM75,27.08A21.65,21.65,0,1,1,53.35,48.73,21.67,21.67,0,0,1,75,27.08ZM27.66,122.92A40.68,40.68,0,0,1,68.2,85.13H81.8a40.68,40.68,0,0,1,40.54,37.79Z" transform="translate(-15.32 -14.85)"/></svg>