<svg id="Capa_1" data-name="Capa 1" xmlns="http://www.w3.org/2000/svg" viewBox="0 0 68.2 68.75"><defs><style>.cls-1{fill:#786ff3;}</style></defs><title>Perfil over</title><path class="cls-1" d="M64.31,49.66a30.16,30.16,0,0,0-13-7.7,19.37,19.37,0,1,0-24.49,0A30.39,30.39,0,0,0,5,71a5.37,5.37,0,0,0,5.36,5.36H67.83A5.37,5.37,0,0,0,73.19,71,30,30,0,0,0,64.31,49.66Zm-25.23-35A12.37,12.37,0,1,1,26.71,27,12.39,12.39,0,0,1,39.08,14.61ZM12,69.37A23.25,23.25,0,0,1,35.2,47.78H43A23.25,23.25,0,0,1,66.14,69.37Z" transform="translate(-4.98 -7.62)"/></svg>