<svg id="Capa_1" data-name="Capa 1" xmlns="http://www.w3.org/2000/svg" viewBox="0 0 459.65 436.73"><title>huellita</title><path d="M149.75,462.17h0c36.3,13.28,73,4.22,98.75-17.69,26.2,21.4,63,29.73,99.08,15.74h0c71.49-27.76,86.13-122.5,26.35-170.54h0L252.2,191.87a9.29,9.29,0,0,0-5.25-2c-.32,0-.64,0-1,0s-.64,0-1,0a9.26,9.26,0,0,0-5.21,2.12L120,292.18h0C61.22,341.38,77.72,435.82,149.75,462.17Z" transform="translate(-20.18 -31.64)"/><ellipse cx="167.47" cy="111.57" rx="59.23" ry="80.39" transform="translate(-35.75 -3.66) rotate(-9.13)"/><ellipse cx="71.59" cy="223.6" rx="50.87" ry="69.03" transform="translate(-54.74 -17.45) rotate(-9.13)"/><ellipse cx="325.85" cy="111.57" rx="80.39" ry="59.23" transform="translate(143.83 383.96) rotate(-80.87)"/><ellipse cx="428.41" cy="223.6" rx="69.03" ry="50.87" transform="translate(119.51 579.48) rotate(-80.87)"/></svg>