<svg id="Capa_1" data-name="Capa 1" xmlns="http://www.w3.org/2000/svg" xmlns:xlink="http://www.w3.org/1999/xlink" viewBox="0 0 416.12 390.37"><defs><style>.cls-1{fill:#f5f6fa;}.cls-2{fill:url(#Degradado_sin_nombre_39);}.cls-3{fill:#786ff3;}</style><linearGradient id="Degradado_sin_nombre_39" x1="390.37" y1="3.51" x2="-1.7" y2="395.58" gradientUnits="userSpaceOnUse"><stop offset="0" stop-color="#9b41fe"/><stop offset="0.7" stop-color="#36c9f3"/><stop offset="0.99" stop-color="#3dd7dc"/></linearGradient></defs><title>Icono masconecta</title><rect class="cls-1" x="4.76" y="15.92" width="408.67" height="304.88" rx="12"/><path class="cls-2" d="M90.49,328.79,77.19,217a11.61,11.61,0,0,1,16.11-12L183,243.4a177.51,177.51,0,0,1,155.57-42.34l60.25-79.81a11.62,11.62,0,0,1,20,2.46l39.31,92.84V82.71a28,28,0,0,0-27.9-27.9H69.84a28,28,0,0,0-27.9,27.9V343.07a26.75,26.75,0,0,0,.3,3.83v88.53A9.74,9.74,0,0,0,60,441L105,376.78l4.07-5.81h.43a75.59,75.59,0,0,1-19-42.18Z" transform="translate(-41.94 -54.81)"/><path class="cls-3" d="M302.93,315.52h0a11.92,11.92,0,0,0-11.19,4.67,11.91,11.91,0,0,0-12.09.72h0A12,12,0,0,0,281,341.72h0l16.91,8.35a1.14,1.14,0,0,0,.67.11l.12,0,.11,0a1.11,1.11,0,0,0,.56-.38l11.51-14.94h0A12,12,0,0,0,302.93,315.52Z" transform="translate(-41.94 -54.81)"/><ellipse class="cls-3" cx="220.14" cy="324.72" rx="14.56" ry="19.76" transform="translate(-56.14 -44.72) rotate(-2.54)"/><ellipse class="cls-3" cx="362.02" cy="291.86" rx="14.56" ry="19.76" transform="translate(-128.38 114.06) rotate(-23.54)"/></svg>