<svg id="Capa_1" data-name="Capa 1" xmlns="http://www.w3.org/2000/svg" xmlns:xlink="http://www.w3.org/1999/xlink" viewBox="0 0 890.23 135.83"><defs><style>.cls-1{fill:#f5f6fa;}.cls-2{fill:url(#Degradado_sin_nombre_39);}.cls-3{fill:#786ff3;}.cls-4{fill:#f9f9ff;}</style><linearGradient id="Degradado_sin_nombre_39" x1="176.12" y1="26.23" x2="39.7" y2="162.65" gradientUnits="userSpaceOnUse"><stop offset="0" stop-color="#9b41fe"/><stop offset="0.7" stop-color="#36c9f3"/><stop offset="0.99" stop-color="#3dd7dc"/></linearGradient></defs><title>Logo Masconecta para fondo oscuro</title><rect class="cls-1" x="1.66" y="5.54" width="142.2" height="106.08" rx="12"/><path class="cls-2" d="M71.77,139.42l-4.62-38.91a4,4,0,0,1,5.6-4.19L104,109.7A61.75,61.75,0,0,1,158.08,95L179,67.2a4,4,0,0,1,7,.86l13.68,32.3V53.79a9.73,9.73,0,0,0-9.71-9.7H64.59a9.73,9.73,0,0,0-9.71,9.7v90.59a9.82,9.82,0,0,0,.11,1.34v30.8a3.38,3.38,0,0,0,6.16,1.94l15.68-22.35,1.41-2h.16a26.3,26.3,0,0,1-6.63-14.67Z" transform="translate(-54.88 -44.09)"/><path class="cls-3" d="M145.69,134.8h0a4.14,4.14,0,0,0-3.89,1.62,4.15,4.15,0,0,0-4.21.25h0a4.19,4.19,0,0,0,.47,7.24h0l5.88,2.91a.41.41,0,0,0,.24,0h.08a.43.43,0,0,0,.19-.14l4-5.2h0A4.19,4.19,0,0,0,145.69,134.8Z" transform="translate(-54.88 -44.09)"/><ellipse class="cls-3" cx="116.89" cy="138" rx="5.07" ry="6.88" transform="translate(-60.89 -38.76) rotate(-2.54)"/><ellipse class="cls-3" cx="166.25" cy="126.57" rx="5.07" ry="6.88" transform="translate(-91.6 32.85) rotate(-23.54)"/><path class="cls-4" d="M312,85.32A31.42,31.42,0,0,0,289,94.85a33.94,33.94,0,0,0-2.38,2.62.21.21,0,0,1-.34,0c-.73-.89-1.52-1.77-2.37-2.62a32.59,32.59,0,0,0-55.65,23.06v32.35a.23.23,0,0,0,.24.23h13.49a.23.23,0,0,0,.24-.23v-32a19,19,0,0,1,5.1-13.17,17.92,17.92,0,0,1,11.77-5.74,19.17,19.17,0,0,1,16.44,7.08,17.83,17.83,0,0,1,3.93,11.47v32.35a.23.23,0,0,0,.23.23h13.5a.23.23,0,0,0,.23-.23V117.91a17.79,17.79,0,0,1,3.94-11.47,19.15,19.15,0,0,1,16.43-7.08,17.9,17.9,0,0,1,11.77,5.74,19.05,19.05,0,0,1,5.11,13.17v32a.23.23,0,0,0,.23.23h8.93a4.8,4.8,0,0,0,4.8-4.8V117.91A32.54,32.54,0,0,0,312,85.32Z" transform="translate(-54.88 -44.09)"/><path class="cls-4" d="M410.86,150.49h8.22V117.91A32.59,32.59,0,1,0,363.43,141a32.85,32.85,0,0,0,41.68,3.78A5.74,5.74,0,0,0,410.86,150.49Zm-5.75-32.59a18.72,18.72,0,0,1-5.46,13.18,18,18,0,0,1-13.16,5.45,18.74,18.74,0,0,1-13.17-5.46,18,18,0,0,1-5.45-13.16,18.7,18.7,0,0,1,5.46-13.17,17.89,17.89,0,0,1,13.15-5.45,18.7,18.7,0,0,1,13.18,5.46A17.93,17.93,0,0,1,405.11,117.9Z" transform="translate(-54.88 -44.09)"/><path class="cls-4" d="M457.41,110.27q-15.5-3.85-15.49-8.07-.23-2.83,7.2-2.91h25.82v-14H447q-18.63-.15-18.62,19.06a17.76,17.76,0,0,0,4.32,12q4.34,5,24.48,10c4,1,6,2.79,6,5.31q-.36,4.44-9.52,4.8H428.31l0,7.47a6.53,6.53,0,0,0,6.53,6.49H454q11.64,0,17.67-5.31t6-15.71q0-7.92-4.47-12.14T457.41,110.27Z" transform="translate(-54.88 -44.09)"/><path class="cls-4" d="M519,99.39a18.09,18.09,0,0,1,11,5.35.11.11,0,0,0,.15,0L540,94.92l-.08-.07a32.59,32.59,0,0,0-55.64,23.06A32.61,32.61,0,0,0,539.89,141l.08-.08-9.9-9.89-.07.07a18,18,0,0,1-13,5.46,18.75,18.75,0,0,1-13.28-5.46,17.9,17.9,0,0,1-5.45-12.89,18.76,18.76,0,0,1,5.45-13.44A18.24,18.24,0,0,1,519,99.39Z" transform="translate(-54.88 -44.09)"/><path class="cls-4" d="M582,85.32a32.54,32.54,0,0,0-32.59,32.59,32.59,32.59,0,1,0,55.65-23.06A31.43,31.43,0,0,0,582,85.32Zm13.16,45.75a18.62,18.62,0,0,1-26.33-26.33,18.62,18.62,0,1,1,26.33,26.33Z" transform="translate(-54.88 -44.09)"/><path class="cls-4" d="M656.49,85.32a32.52,32.52,0,0,0-32.58,32.59v32.58h14V117.91a17.92,17.92,0,0,1,5.19-12.9,18.81,18.81,0,0,1,13.43-5.72,18,18,0,0,1,13.58,5.87,18.92,18.92,0,0,1,5,13v32.31h7.31a6.66,6.66,0,0,0,6.66-6.66V117.91a32.54,32.54,0,0,0-32.59-32.59Z" transform="translate(-54.88 -44.09)"/><path class="cls-4" d="M731,85.32a32.54,32.54,0,0,0-32.59,32.59A32.61,32.61,0,0,0,754,141l.08-.08-9.84-9.84a.08.08,0,0,0-.11,0,18.55,18.55,0,0,1-26.35,0,18.32,18.32,0,0,1-3.61-5,2.43,2.43,0,0,1,2.15-3.51h42.56a4.6,4.6,0,0,0,4.65-4.5v-.15A32.54,32.54,0,0,0,731,85.32ZM715,108.6a.08.08,0,0,1-.07-.12,18.49,18.49,0,0,1,2.93-3.76,18.82,18.82,0,0,1,13.54-5.43,17.91,17.91,0,0,1,12.77,5.45,18.09,18.09,0,0,1,3,3.86Z" transform="translate(-54.88 -44.09)"/><path class="cls-4" d="M805.46,99.29a17.94,17.94,0,0,1,13.16,5.45l.08.07,9.89-9.89-.07-.07a32.59,32.59,0,0,0-55.65,23.06A32.62,32.62,0,0,0,828.52,141l.07-.08L818.7,131l-.08.07a18.62,18.62,0,0,1-26.33-26.33A18,18,0,0,1,805.46,99.29Z" transform="translate(-54.88 -44.09)"/><path class="cls-4" d="M852,71.67a5,5,0,0,0-5-5h-9v51.21a32.5,32.5,0,0,0,32.58,32.58v-7.88a6.85,6.85,0,0,0-4.92-6.7,18.13,18.13,0,0,1-8.64-5.24,18.92,18.92,0,0,1-5.06-13V99.29h18.62v-14H852Z" transform="translate(-54.88 -44.09)"/><path class="cls-4" d="M935.59,94.85a32.59,32.59,0,0,0-55.65,23.06,32.7,32.7,0,0,0,51.21,26.84,5.74,5.74,0,0,0,5.75,5.74h8.22V117.91A31.42,31.42,0,0,0,935.59,94.85Zm-9.9,36.23a17.93,17.93,0,0,1-13.15,5.45,18.74,18.74,0,0,1-13.18-5.46,18,18,0,0,1-5.45-13.16,18.7,18.7,0,0,1,5.46-13.17,17.89,17.89,0,0,1,13.15-5.45,18.7,18.7,0,0,1,13.18,5.46,17.93,17.93,0,0,1,5.45,13.15A18.72,18.72,0,0,1,925.69,131.08Z" transform="translate(-54.88 -44.09)"/></svg>