<svg id="Capa_1" data-name="Capa 1" xmlns="http://www.w3.org/2000/svg" viewBox="0 0 125.78 139.62"><defs><style>.cls-1{fill:#786ff3;}</style></defs><title>Crear evento</title><path class="cls-1" d="M124.27,18.64H102.69V9.93a4.76,4.76,0,0,0-4.75-4.74H92.4a4.75,4.75,0,0,0-4.74,4.74v8.71H61.16V9.93a4.76,4.76,0,0,0-4.75-4.74H50.87a4.75,4.75,0,0,0-4.74,4.74v8.71H25.73A13.65,13.65,0,0,0,12.11,32.25v98.94a13.66,13.66,0,0,0,13.62,13.62h98.54a13.66,13.66,0,0,0,13.62-13.62V32.25A13.65,13.65,0,0,0,124.27,18.64ZM122.86,131H25.16V40h97.7Z" transform="translate(-12.11 -5.19)"/><rect class="cls-1" x="91.96" y="55.77" width="13.84" height="18.59" transform="translate(-29.16 83.79) rotate(-45)"/><rect class="cls-1" x="46.12" y="83.68" width="49.71" height="18.59" transform="translate(-57.07 72.23) rotate(-45)"/><polygon class="cls-1" points="34.81 98.88 34.8 105.41 34.8 111.94 41.33 111.94 47.86 111.94 41.33 105.41 34.81 98.88"/></svg>