<svg id="Capa_1" data-name="Capa 1" xmlns="http://www.w3.org/2000/svg" viewBox="0 0 139.62 111.54"><defs><style>.cls-1{fill:#786ff3;}</style></defs><title>Imagen</title><path class="cls-1" d="M124.5,19.23h-99A20.31,20.31,0,0,0,5.19,39.55v70.9A20.31,20.31,0,0,0,25.5,130.77h99a20.31,20.31,0,0,0,20.31-20.32V39.55A20.31,20.31,0,0,0,124.5,19.23Zm6.86,94.57a3.13,3.13,0,0,1-3.13,3.13H23a3.13,3.13,0,0,1-3.13-3.13V36.2A3.13,3.13,0,0,1,23,33.07H128.23a3.13,3.13,0,0,1,3.13,3.13Z" transform="translate(-5.19 -19.23)"/><path class="cls-1" d="M85.48,61.55c-.79.4-20.17,25.32-20.57,26.9s-10.68-13-10.68-13-20.56,26.89-21,27.29h83.46S86.27,61.16,85.48,61.55Z" transform="translate(-5.19 -19.23)"/><circle class="cls-1" cx="38.56" cy="37.77" r="10.09"/></svg>