<svg id="Capa_1" data-name="Capa 1" xmlns="http://www.w3.org/2000/svg" viewBox="0 0 174.81 176.73"><defs><style>.cls-1{fill:#da4e7f;}</style></defs><title>ME GUSTA SELECT</title><ellipse class="cls-1" cx="88.55" cy="49.49" rx="20.63" ry="28.01" transform="translate(-33.95 -6.96) rotate(-9.13)"/><ellipse class="cls-1" cx="45.12" cy="71.35" rx="17.71" ry="24.04" transform="translate(-37.97 -13.57) rotate(-9.13)"/><ellipse class="cls-1" cx="140.6" cy="49.49" rx="28.01" ry="20.63" transform="matrix(0.16, -0.99, 0.99, 0.16, 42.21, 158.82)"/><ellipse class="cls-1" cx="184.12" cy="71.36" rx="24.04" ry="17.71" transform="translate(57.23 220.18) rotate(-80.87)"/><path class="cls-1" d="M155.59,94.73h0a38.29,38.29,0,0,0-39,5.69,3.13,3.13,0,0,1-3.94,0,38.31,38.31,0,0,0-39-5.69h0a38.64,38.64,0,0,0-8.93,66.34h0L112,197.48a4.46,4.46,0,0,0,5.33,0l47.27-36.41h0a38.65,38.65,0,0,0-9-66.34Z" transform="translate(-27.22 -21.64)"/></svg>