<svg id="Capa_1" data-name="Capa 1" xmlns="http://www.w3.org/2000/svg" viewBox="0 0 186.56 177.13"><defs><style>.cls-1{fill:#aeb6e5;}</style></defs><title>MENSAJES</title><path class="cls-1" d="M109.83,21.44C58.32,21.55,16.63,55,16.72,96.13s41.93,74.4,93.45,74.29A116.53,116.53,0,0,0,128,169a2.89,2.89,0,0,1,2.95,1.41L145.74,196a5.22,5.22,0,0,0,9,0L173.6,163.2l17.64-30.72a63,63,0,0,0,12-36.76C203.19,54.58,161.35,21.32,109.83,21.44Zm38.3,87.49-.62,0-.62,0a12.09,12.09,0,0,1-1.21-.12,11.58,11.58,0,0,1-2.3-.59,12,12,0,0,1-2.6-1.33c-.32-.21-.62-.45-.92-.69s-.58-.51-.86-.78a11.81,11.81,0,0,1-1.13-1.31c-.23-.31-.45-.63-.65-1a10,10,0,0,1-.55-1,10.3,10.3,0,0,1-.46-1.08,12.1,12.1,0,0,1,0-8.28,11.29,11.29,0,0,1,.46-1.08,10,10,0,0,1,.55-1c.2-.33.42-.65.65-1A12.79,12.79,0,0,1,139,88.4c.28-.27.56-.53.86-.78s.6-.47.92-.69a12.12,12.12,0,0,1,4.9-1.91,9.73,9.73,0,0,1,1.21-.13h1.24a9.89,9.89,0,0,1,1.22.13,12,12,0,0,1,2.3.59,11.7,11.7,0,0,1,2.59,1.32q.48.33.93.69c.3.25.58.51.85.78a12.89,12.89,0,0,1,1.14,1.31c.23.31.45.63.65,1s.38.67.55,1,.32.72.46,1.08a12.1,12.1,0,0,1,0,8.28c-.14.37-.29.73-.46,1.08s-.35.69-.55,1-.42.65-.65,1a11.89,11.89,0,0,1-1.14,1.31c-.27.27-.55.53-.85.78s-.61.48-.93.69a12.18,12.18,0,0,1-2.59,1.33,12,12,0,0,1-2.3.59C149,108.87,148.54,108.91,148.13,108.93Zm-29-7.88c-.14.37-.29.73-.46,1.08a10.11,10.11,0,0,1-.56,1c-.2.33-.41.65-.64,1a11.89,11.89,0,0,1-1.14,1.31c-.27.27-.56.53-.85.78s-.61.48-.93.69a12.18,12.18,0,0,1-2.59,1.33,11.92,11.92,0,0,1-3.52.71l-.62,0-.62,0a12.09,12.09,0,0,1-1.21-.12,11.86,11.86,0,0,1-2.31-.59,12.18,12.18,0,0,1-2.59-1.33,10.5,10.5,0,0,1-.92-.69c-.3-.25-.59-.51-.86-.78a10.84,10.84,0,0,1-1.13-1.31c-.23-.31-.45-.63-.65-1s-.39-.67-.56-1a10.24,10.24,0,0,1-.45-1.08,12.1,12.1,0,0,1,0-8.28A11.2,11.2,0,0,1,97,91.69c.17-.35.36-.69.56-1s.42-.65.65-1a11.66,11.66,0,0,1,1.13-1.31c.27-.27.56-.53.86-.78s.6-.47.92-.69a11.7,11.7,0,0,1,2.59-1.32A11.86,11.86,0,0,1,106,85a9.73,9.73,0,0,1,1.21-.13h1.24a9.53,9.53,0,0,1,1.21.13,11.86,11.86,0,0,1,2.31.59,11.7,11.7,0,0,1,2.59,1.32q.48.33.93.69c.29.25.58.51.85.78a12.89,12.89,0,0,1,1.14,1.31c.23.31.44.63.64,1a10.11,10.11,0,0,1,.56,1c.17.35.32.72.46,1.08a12.1,12.1,0,0,1,0,8.28ZM56.42,92.77a11.29,11.29,0,0,1,.46-1.08,10,10,0,0,1,.55-1c.2-.33.42-.65.65-1a14.16,14.16,0,0,1,1.13-1.31c.28-.27.56-.53.86-.78s.61-.47.93-.69A12,12,0,0,1,65.89,85a9.69,9.69,0,0,1,1.22-.13h1.23a9.89,9.89,0,0,1,1.22.13,12,12,0,0,1,4.89,1.91q.48.33.93.69c.3.25.58.51.85.78a12.89,12.89,0,0,1,1.14,1.31c.23.31.45.63.65,1s.38.67.55,1,.32.72.46,1.08a12.1,12.1,0,0,1,0,8.28c-.14.37-.29.73-.46,1.08s-.35.69-.55,1-.42.65-.65,1a11.89,11.89,0,0,1-1.14,1.31c-.27.27-.55.53-.85.78s-.61.48-.93.69a12.18,12.18,0,0,1-2.59,1.33,11.76,11.76,0,0,1-2.3.59c-.4.06-.81.1-1.22.12l-.62,0-.61,0a12,12,0,0,1-1.22-.12,11.58,11.58,0,0,1-2.3-.59A12,12,0,0,1,61,106.89c-.32-.21-.63-.45-.93-.69s-.58-.51-.86-.78a13,13,0,0,1-1.13-1.31c-.23-.31-.45-.63-.65-1a10,10,0,0,1-.55-1,10.3,10.3,0,0,1-.46-1.08,12.1,12.1,0,0,1,0-8.28Z" transform="translate(-16.72 -21.43)"/></svg>