<svg id="Capa_1" data-name="Capa 1" xmlns="http://www.w3.org/2000/svg" viewBox="0 0 135.23 128.46"><defs><style>.cls-1{fill:#d4d9ff;}</style></defs><title>Mensajes publicación</title><path class="cls-1" d="M80,61.7c-.13-.26-.26-.5-.41-.74a6.58,6.58,0,0,0-.47-.7,9.15,9.15,0,0,0-.82-.95,8.24,8.24,0,0,0-.62-.56,6.48,6.48,0,0,0-.67-.5,8.13,8.13,0,0,0-1.88-1,8.35,8.35,0,0,0-1.67-.43,6.4,6.4,0,0,0-.88-.09h-.9a6.56,6.56,0,0,0-.88.09,8.72,8.72,0,0,0-1.67.43,8.13,8.13,0,0,0-1.88,1,7.76,7.76,0,0,0-.67.5c-.21.18-.42.36-.62.56a10.53,10.53,0,0,0-.82.95c-.17.22-.32.46-.47.7s-.28.48-.4.74-.23.51-.33.78a8.76,8.76,0,0,0,0,6q.15.4.33.78c.12.26.26.5.4.74s.3.48.47.7a9.32,9.32,0,0,0,.82,1c.2.2.41.38.62.56a7.76,7.76,0,0,0,.67.5,8.13,8.13,0,0,0,1.88,1,8,8,0,0,0,1.67.43,6.56,6.56,0,0,0,.88.09h.9a6.4,6.4,0,0,0,.88-.09,7.73,7.73,0,0,0,1.67-.43,8.13,8.13,0,0,0,1.88-1,6.48,6.48,0,0,0,.67-.5,8.43,8.43,0,0,0,1.44-1.51,6.58,6.58,0,0,0,.47-.7c.15-.24.28-.48.41-.74s.23-.51.33-.78a8.76,8.76,0,0,0,0-6Q80.21,62.08,80,61.7Z" transform="translate(-6.14 -10.77)"/><path class="cls-1" d="M51,61.7c-.13-.26-.26-.5-.41-.74a6.58,6.58,0,0,0-.47-.7,9.15,9.15,0,0,0-.82-.95,8.24,8.24,0,0,0-.62-.56,6.48,6.48,0,0,0-.67-.5,8.13,8.13,0,0,0-1.88-1,8.35,8.35,0,0,0-1.67-.43,6.4,6.4,0,0,0-.88-.09h-.9a6.56,6.56,0,0,0-.88.09,8.72,8.72,0,0,0-1.67.43,8.27,8.27,0,0,0-1.87,1,6.6,6.6,0,0,0-.68.5c-.21.18-.42.36-.62.56a10.53,10.53,0,0,0-.82.95c-.17.22-.32.46-.47.7s-.28.48-.4.74-.23.51-.33.78a8.76,8.76,0,0,0,0,6q.15.4.33.78c.12.26.26.5.4.74s.3.48.47.7a9.32,9.32,0,0,0,.82,1c.2.2.41.38.62.56a6.6,6.6,0,0,0,.68.5,8.27,8.27,0,0,0,1.87,1,8,8,0,0,0,1.67.43,6.56,6.56,0,0,0,.88.09h.9a6.4,6.4,0,0,0,.88-.09,7.73,7.73,0,0,0,1.67-.43,8.13,8.13,0,0,0,1.88-1,6.48,6.48,0,0,0,.67-.5,8.43,8.43,0,0,0,1.44-1.51,6.58,6.58,0,0,0,.47-.7c.15-.24.28-.48.41-.74s.23-.51.33-.78a8.76,8.76,0,0,0,0-6Q51.13,62.08,51,61.7Z" transform="translate(-6.14 -10.77)"/><path class="cls-1" d="M108.78,61.7a6.58,6.58,0,0,0-.4-.74c-.15-.24-.3-.48-.47-.7a10.53,10.53,0,0,0-.82-.95c-.2-.2-.41-.38-.62-.56a7.76,7.76,0,0,0-.67-.5,8.13,8.13,0,0,0-1.88-1,8.72,8.72,0,0,0-1.67-.43,6.56,6.56,0,0,0-.88-.09h-.9a6.4,6.4,0,0,0-.88.09,8.35,8.35,0,0,0-1.67.43,8.13,8.13,0,0,0-1.88,1,6.48,6.48,0,0,0-.67.5,8.24,8.24,0,0,0-.62.56,9.15,9.15,0,0,0-.82.95,8.8,8.8,0,0,0-.87,1.44,6.81,6.81,0,0,0-.34.78,8.76,8.76,0,0,0,0,6,6.81,6.81,0,0,0,.34.78,8.8,8.8,0,0,0,.87,1.44,8.43,8.43,0,0,0,1.44,1.51,6.48,6.48,0,0,0,.67.5,8.13,8.13,0,0,0,1.88,1,7.73,7.73,0,0,0,1.67.43,6.4,6.4,0,0,0,.88.09h.9a6.56,6.56,0,0,0,.88-.09,8,8,0,0,0,1.67-.43,8.13,8.13,0,0,0,1.88-1,7.76,7.76,0,0,0,.67-.5c.21-.18.42-.36.62-.56a9.32,9.32,0,0,0,.82-1c.17-.22.32-.46.47-.7a6.58,6.58,0,0,0,.4-.74,6.76,6.76,0,0,0,.33-.78,8.76,8.76,0,0,0,0-6A6.76,6.76,0,0,0,108.78,61.7Z" transform="translate(-6.14 -10.77)"/><path class="cls-1" d="M73.75,10.77c-37.34,0-67.61,24.18-67.61,54s30.27,54,67.61,54a85.35,85.35,0,0,0,12.91-1,2.1,2.1,0,0,1,2.14,1l10.69,18.52a3.79,3.79,0,0,0,6.57,0l13.68-23.7L132.58,91.4a45.68,45.68,0,0,0,8.78-26.63C141.36,35,111.09,10.77,73.75,10.77Zm51.13,75.15-.26.36-21.85,37.85-5.79-10a11.48,11.48,0,0,0-10-5.78,12.34,12.34,0,0,0-1.8.14,75.36,75.36,0,0,1-11.46.88c-15.93,0-30.81-4.89-41.92-13.75C21.35,87.2,15.58,76.26,15.58,64.77S21.35,42.34,31.83,34c11.11-8.87,26-13.75,41.92-13.75S104.56,25.1,115.67,34c10.48,8.37,16.25,19.3,16.25,30.8A36,36,0,0,1,124.88,85.92Z" transform="translate(-6.14 -10.77)"/></svg>