<svg id="Capa_1" data-name="Capa 1" xmlns="http://www.w3.org/2000/svg" viewBox="0 0 128.56 110.72"><defs><style>.cls-1{fill:#d4d9ff;}</style></defs><title>Compartir</title><path class="cls-1" d="M110.51,43.26,88.7,21.33c-3.74-3.76-9.76-.85-9.76,4.72v17c-15.37,1.29-69.22,10.88-68.2,82,.06,4.47,5,6.81,8,3.82,8.47-8.41,26-20.2,60.21-26V124c0,5.57,6,8.48,9.76,4.72l21.81-21.93,26.88-27a6.84,6.84,0,0,0,0-9.44ZM87,119V93.36L77.6,95c-29.84,5.07-48,14.61-58.76,23.15,2.28-55.91,42.89-65.52,60.77-67L87,50.47V31l43.8,44Zm44.72-43.11h0Z" transform="translate(-10.72 -19.64)"/></svg>