<svg id="Capa_1" data-name="Capa 1" xmlns="http://www.w3.org/2000/svg" viewBox="0 0 112.92 129.25"><defs><style>.cls-1{fill:#d4d9ff;}</style></defs><title>Favorito</title><path class="cls-1" d="M124.16,10.37H25.84a7.11,7.11,0,0,0-7.3,6.89v74.3h0v47a1.18,1.18,0,0,0,1.94.83l54-37.64a1.22,1.22,0,0,1,1.53,0l53.47,37.2a1.18,1.18,0,0,0,1.94-.84V17.26A7.11,7.11,0,0,0,124.16,10.37ZM122,122.23,81.57,94.07a10.7,10.7,0,0,0-12.58,0L28,122.66V91.56l0-9.42V19.8H122Z" transform="translate(-18.54 -10.37)"/></svg>