<svg id="Capa_1" data-name="Capa 1" xmlns="http://www.w3.org/2000/svg" viewBox="0 0 132.99 134.45"><defs><style>.cls-1{fill:#d4d9ff;}</style></defs><title>Me gusta</title><path class="cls-1" d="M58.54,50c5.88-1,10.28-6.22,11.85-13.2a36.8,36.8,0,0,1,0-11.71C68.11,14.21,60,6.6,51.78,7.92c-8,1.29-13.3,10.64-12.39,21.38A32.21,32.21,0,0,1,44.3,42q.09.55.15,1.11C48.13,48.06,53.31,50.83,58.54,50ZM53.2,16.78a2.69,2.69,0,0,1,.4,0c2.75,0,7.06,4.07,8.2,11.14A16.72,16.72,0,0,1,60.53,38c-.44.86-1.66,2.89-3.42,3.18s-3.55-1.27-4.24-2A16.76,16.76,0,0,1,48.52,30C47.32,22.59,50.49,17.22,53.2,16.78Z" transform="translate(-8.5 -7.78)"/><path class="cls-1" d="M30.78,32.73c-3.11-3.8-7.32-5.88-11.55-5.2-7.35,1.18-12,10.22-10.41,20.2S17.68,64.84,25,63.66c6.66-1.07,11.11-8.59,10.7-17.41A36.23,36.23,0,0,1,30.8,32.87.78.78,0,0,1,30.78,32.73Zm-5.16,20c-.6,1.17-1.37,1.95-2,2.06a3.62,3.62,0,0,1-2.55-1.32,13.06,13.06,0,0,1-3.38-7.17c-.9-5.62,1.44-9.68,3-9.92s5,2.87,5.93,8.49A13.11,13.11,0,0,1,25.62,52.74Z" transform="translate(-8.5 -7.78)"/><path class="cls-1" d="M39.39,29.3c.06.71.15,1.43.27,2.15a26.7,26.7,0,0,0,4.79,11.69q-.06-.55-.15-1.11A32.21,32.21,0,0,0,39.39,29.3Z" transform="translate(-8.5 -7.78)"/><path class="cls-1" d="M30.78,32.73a.78.78,0,0,0,0,.14,36.23,36.23,0,0,0,4.93,13.38,27.42,27.42,0,0,0-.29-2.8A22.65,22.65,0,0,0,30.78,32.73Z" transform="translate(-8.5 -7.78)"/><path class="cls-1" d="M91.38,50c5.28.84,10.51-2,14.18-7,0-.32.09-.65.14-1a32.39,32.39,0,0,1,4.81-12.59c1-10.8-4.3-20.22-12.37-21.52C89.92,6.6,81.81,14.21,79.52,25.09a36.8,36.8,0,0,1,0,11.71C81.1,43.78,85.5,49.05,91.38,50ZM88.12,27.89c1.14-7.07,5.45-11.14,8.2-11.14a2.69,2.69,0,0,1,.4,0c2.71.44,5.88,5.81,4.68,13.25A16.71,16.71,0,0,1,97,39.19c-.68.68-2.48,2.23-4.23,2s-3-2.32-3.42-3.18A16.72,16.72,0,0,1,88.12,27.89Z" transform="translate(-8.5 -7.78)"/><path class="cls-1" d="M70.39,36.8a27.36,27.36,0,0,0,.27-10.33c-.08-.46-.17-.92-.26-1.38A36.8,36.8,0,0,0,70.39,36.8Z" transform="translate(-8.5 -7.78)"/><path class="cls-1" d="M79.52,25.09c-.09.46-.18.92-.26,1.38a27.36,27.36,0,0,0,.27,10.33A36.8,36.8,0,0,0,79.52,25.09Z" transform="translate(-8.5 -7.78)"/><path class="cls-1" d="M114.28,46.1c-.46,8.89,4,16.48,10.69,17.56,7.35,1.18,14.61-5.95,16.21-15.93s-3.06-19-10.41-20.2c-4.28-.69-8.52,1.45-11.64,5.32v0A36.16,36.16,0,0,1,114.28,46.1Zm9.14-1.22c.87-5.42,4.15-8.5,5.75-8.5h.18c1.53.24,3.87,4.3,3,9.92a13.13,13.13,0,0,1-3.38,7.17,3.62,3.62,0,0,1-2.55,1.32c-.64-.11-1.41-.89-2-2.06A13.11,13.11,0,0,1,123.42,44.88Z" transform="translate(-8.5 -7.78)"/><path class="cls-1" d="M105.56,43a26.54,26.54,0,0,0,4.7-11.55c.11-.67.19-1.34.25-2A32.39,32.39,0,0,0,105.7,42C105.65,42.35,105.61,42.68,105.56,43Z" transform="translate(-8.5 -7.78)"/><path class="cls-1" d="M114.28,46.1a36.16,36.16,0,0,0,4.84-13.23v0a22.63,22.63,0,0,0-4.57,10.6C114.42,44.35,114.33,45.23,114.28,46.1Z" transform="translate(-8.5 -7.78)"/><path class="cls-1" d="M106.16,63.38h0A29.14,29.14,0,0,0,76.5,67.71a2.41,2.41,0,0,1-3,0,29.14,29.14,0,0,0-29.66-4.33h0a29.4,29.4,0,0,0-6.78,50.47h0L73,141.55a3.41,3.41,0,0,0,4.06,0l35.91-27.7h0A29.4,29.4,0,0,0,106.16,63.38Zm1.3,43.37L75,131.78l-32.46-25a20.43,20.43,0,0,1,4.71-35.07,20.66,20.66,0,0,1,7.84-1.57,20.25,20.25,0,0,1,12.77,4.58,11.43,11.43,0,0,0,14.28,0,20.43,20.43,0,1,1,25.32,32.06Z" transform="translate(-8.5 -7.78)"/></svg>