<svg id="Capa_1" data-name="Capa 1" xmlns="http://www.w3.org/2000/svg" viewBox="0 0 133.13 134.59"><defs><style>.cls-1{fill:#f7196e;}</style></defs><title>Me gusta seleccion</title><ellipse class="cls-1" cx="55.14" cy="28.91" rx="15.71" ry="21.33" transform="translate(-12.32 1.41) rotate(-9.13)"/><ellipse class="cls-1" cx="22.07" cy="45.56" rx="13.49" ry="18.31" transform="translate(-15.38 -3.63) rotate(-9.13)"/><ellipse class="cls-1" cx="94.78" cy="28.91" rx="21.33" ry="15.71" transform="translate(42.77 110.2) rotate(-80.87)"/><ellipse class="cls-1" cx="127.93" cy="45.56" rx="18.31" ry="13.49" transform="translate(54.21 156.94) rotate(-80.87)"/><path class="cls-1" d="M106.2,63.37h0A29.17,29.17,0,0,0,76.5,67.7a2.38,2.38,0,0,1-3,0,29.17,29.17,0,0,0-29.7-4.33h0A29.43,29.43,0,0,0,37,113.89h0L73,141.62a3.41,3.41,0,0,0,4.06,0l36-27.73h0A29.43,29.43,0,0,0,106.2,63.37Z" transform="translate(-8.43 -7.71)"/></svg>